# xmcd CD database file generated by OrangeCD 5.2
#
# Track frame offsets:
#	150
#	27750
#	46745
#	98257
#	115930
#	138010
#	156672
#	200470
#	226650
#	249165
#
# Disc length: 4228 seconds
#
# Revision: 19
# Processed by: cddbd v1.5.1PL2 Copyright (c) Steve Scherf et al.
# Submitted via: OrangeCD 5.2
#
DISCID=6c10820a
DTITLE=Stevie Ray Vaughan And Double Trouble - Blues At Sunrise
DYEAR=2000
DGENRE=Blues
TTITLE0=Ain't Gone 'N' Give Up On Love
TTITLE1=Leave My Girl Alone
TTITLE2=Tin Pan Alley (Live)  [Featuring Johnny Copeland]
TTITLE3=Chitlins Con Carne
TTITLE4=The Things (That) I Used To Do
TTITLE5=The Sky Is Crying (Previously Unreleased)
TTITLE6=Texas Flood (Live Video Version)
TTITLE7=May I Have A Talk With You
TTITLE8=Dirty Pool
TTITLE9=Blues At Sunrise (Live) [Featuring Albert King]
EXTD=
EXTT0=
EXTT1=
EXTT2=
EXTT3=
EXTT4=
EXTT5=
EXTT6=
EXTT7=
EXTT8=
EXTT9=
PLAYORDER=
